{"title":"Little.Murder.2011.BRRip.XviD-TODE","uid":7167589,"size":665094335,"categoryP":"video","categoryS":"movies","magnet":"?xt=urn:btih:4ebfc3e21ee54ec84778833d2b5f21f03f086925&amp;dn=Little.Murder.2011.BRRip.XviD-TODE&amp;tr=udp%3A%2F%2Ftracker.openbittorrent.com%3A80&amp;tr=udp%3A%2F%2Fopen.demonii.com%3A1337&amp;tr=udp%3A%2F%2Ftracker.coppersurfer.tk%3A6969&amp;tr=udp%3A%2F%2Fexodus.desync.com%3A6969","seeders":1,"leechers":0,"uploader":"maximersk","files":4,"time":1333833068,"description":"Little.Murder.2011.BRRip.XviD-TODE\n\n\n\n\n\n\nIn post-Katrina New Orleans, a disgraced detective encounters the ghost of a murdered woman who wants to help him identify her killer. \n\nFormat : AVI\nFormat/Info : Audio Video Interleave\nFile size : 634 MiB\nDuration : 1h 37mn\nOverall bit rate : 906 Kbps\nWriting application : Lavf51.12.1\nWriting library : VirtualDub build 32842/release\n\nVideo\nID : 0\nFormat : MPEG-4 Visual\nFormat profile : Advanced Simple@L5\nFormat settings, BVOP : 2\nFormat settings, QPel : No\nFormat settings, GMC : No warppoints\nFormat settings, Matrix : Default (H.263)\nMuxing mode : Packed bitstream\nCodec ID : XVID\nCodec ID/Hint : XviD\nDuration : 1h 37mn\nBit rate : 862 Kbps\nWidth : 720 pixels\nHeight : 302 pixels\nDisplay aspect ratio : 2.40:1\nFrame rate : 23.976 fps\nColor space : YUV\nChroma subsampling : 4:2:0\nBit depth : 8 bits\nScan type : Progressive\nCompression mode : Lossy\nBits/(Pixel*Frame) : 0.165\nStream size : 603 MiB (95%)\nWriting library : XviD 62\n\nAudio\nID : 1\nFormat : MPEG Audio\nFormat version : Version 1\nFormat profile : Layer 3\nMode : Joint stereo\nMode extension : MS Stereo\nCodec ID : 55\nCodec ID/Hint : MP3\nDuration : 1h 37mn\nBit rate mode : Constant\nBit rate : 32.0 Kbps\nChannel(s) : 2 channels\nSampling rate : 44.1 KHz\nCompression mode : Lossy\nStream size : 22.4 MiB (4%)\nAlignment : Aligned on interleaves\nInterleave, duration : 26 ms (0.63 video frame)\nInterleave, preload duration : 522 ms\nWriting library : LAME3.97\n\n\n\n","torrent":{"xt":"urn:btih:4ebfc3e21ee54ec84778833d2b5f21f03f086925","amp;dn":"Little.Murder.2011.BRRip.XviD-TODE","amp;tr":["udp%3A%2F%2Ftracker.openbittorrent.com%3A80","udp%3A%2F%2Fopen.demonii.com%3A1337","udp%3A%2F%2Ftracker.coppersurfer.tk%3A6969","udp%3A%2F%2Fexodus.desync.com%3A6969"],"infoHash":"4ebfc3e21ee54ec84778833d2b5f21f03f086925","infoHashBuffer":{"type":"Buffer","data":[78,191,195,226,30,229,78,200,71,120,131,61,43,95,33,240,63,8,105,37]},"announce":[],"urlList":[]}}